<svg width="256" height="62" viewBox="0 0 256 62" fill="none" xmlns="http://www.w3.org/2000/svg">
<path d="M29.4213 33.1826V9.72534C28.8139 9.70662 28.6132 10.1802 28.3214 10.4773C23.4508 15.4392 18.5932 20.4141 13.7304 25.3832C12.6504 26.4866 11.1874 26.5721 10.0011 25.6147C8.95591 24.771 8.72421 23.2024 9.52828 21.9666C10.6051 20.312 12.1433 19.0751 13.5047 17.6818C18.7081 12.3561 23.9379 7.05663 29.1584 1.74769C29.7577 1.1379 30.3543 0.526492 31.1743 0.205454C32.8154 -0.437437 34.4559 0.4809 34.7138 2.22829C34.8084 2.87146 34.8184 3.53144 34.8182 4.18383C34.8144 11.0697 34.7995 17.9557 34.7898 24.8416C34.7826 29.8333 34.7599 34.825 34.7861 39.8167C34.7925 41.0699 34.5045 42.1605 33.3052 42.6563C32.1397 43.138 30.9799 42.9188 30.0487 41.985C28.2982 40.2292 26.5446 38.4758 24.8278 36.6871C23.5962 35.4041 23.6278 33.9191 24.8367 32.6596C25.7085 31.7514 27.5359 31.7476 28.6426 32.6599C28.8536 32.8336 28.9418 33.159 29.4213 33.1826Z" fill="#C4151C"/>
<path d="M5.43514 15.0156V39.2745C6.8097 37.9176 8.0386 36.7276 9.24188 35.5119C13.0057 31.7091 16.7499 27.8862 20.5235 24.0931C21.8344 22.7753 23.5207 22.6046 24.574 23.3346C26.1042 24.3955 26.1992 26.421 24.7227 27.7293C21.6474 30.4545 18.9277 33.5403 16.003 36.4185C12.2653 40.097 8.63984 43.8903 4.93856 47.6068C3.63953 48.9111 2.34185 48.9827 1.02366 48.0093C0.239549 47.4304 0.0483089 46.5938 0.0458813 45.7362C0.0143226 34.6337 0.00757928 23.5308 2.67609e-05 12.428C-0.000782437 11.2812 0.0167499 10.1338 0.053973 8.9875C0.0957816 7.70552 0.365245 6.46615 1.71472 5.98391C3.06473 5.5014 4.21379 5.96301 5.20587 7.02789C6.7215 8.6548 8.31912 10.2041 9.87656 11.7916C10.7831 12.7154 11.1397 13.8093 10.6585 15.0441C10.3079 15.9432 9.56097 16.4346 8.61286 16.5806C7.3578 16.7738 6.45662 16.0992 5.43514 15.0156Z" fill="#FFCB04"/>
<path d="M60.789 30.2626H76.7329L68.7609 10.9311L60.789 30.2626ZM55.4744 43.219H51.4373L67.0745 6.81787H70.6517L86.187 43.219H82.0987L78.1128 33.6559H59.4093L55.4744 43.219Z" fill="white"/>
<path d="M123.646 13.3989C122.385 12.0621 120.886 11.026 119.149 10.2884C117.411 9.55184 115.418 9.18303 113.17 9.18303C110.852 9.18303 108.766 9.61099 106.909 10.4666C105.052 11.3223 103.477 12.4775 102.182 13.9316C100.887 15.3856 99.891 17.0711 99.1929 18.9871C98.4943 20.9038 98.1453 22.9226 98.1453 25.0442C98.1453 27.1666 98.4943 29.1854 99.1929 31.1013C99.891 33.0183 100.887 34.6949 102.182 36.1318C103.477 37.569 105.052 38.7156 106.909 39.571C108.766 40.4263 110.852 40.8538 113.17 40.8538C115.214 40.8538 117.087 40.6312 118.791 40.1856C120.494 39.7403 121.874 39.1748 122.93 38.489V27.435H114.498V24.1446H126.609V40.5878C124.633 41.7906 122.504 42.6839 120.222 43.2679C117.939 43.8519 115.571 44.1442 113.118 44.1442C110.392 44.1442 107.872 43.6639 105.555 42.7048C103.238 41.7458 101.245 40.4169 99.5762 38.7202C97.9065 37.0236 96.6035 35.0105 95.667 32.6791C94.7294 30.3488 94.2614 27.7949 94.2614 25.0184C94.2614 22.2422 94.7383 19.6891 95.6926 17.3577C96.6458 15.0271 97.9664 13.0132 99.6528 11.3166C101.339 9.61995 103.332 8.2921 105.632 7.33224C107.931 6.37293 110.427 5.89259 113.118 5.89259C116.014 5.89259 118.535 6.32788 120.682 7.19873C122.828 8.06958 124.668 9.27937 126.201 10.8281L123.646 13.3989Z" fill="white"/>
<path d="M145.312 39.9285H164.68V43.2189H141.633V6.81807H164.067V10.1085H145.312V22.6021H162.841V25.8926H145.312V39.9285Z" fill="white"/>
<path d="M209.395 25.0442C209.395 22.9226 209.054 20.9038 208.373 18.9871C207.691 17.0712 206.703 15.3856 205.409 13.9316C204.114 12.4776 202.538 11.3223 200.682 10.4667C198.825 9.61101 196.738 9.18305 194.422 9.18305C192.104 9.18305 190.018 9.61101 188.162 10.4667C186.304 11.3223 184.729 12.4776 183.435 13.9316C182.14 15.3856 181.152 17.0712 180.471 18.9871C179.789 20.9038 179.449 22.9226 179.449 25.0442C179.449 27.1666 179.789 29.1854 180.471 31.1013C181.152 33.0183 182.14 34.6949 183.435 36.1318C184.729 37.569 186.304 38.7153 188.162 39.571C190.018 40.4264 192.104 40.8538 194.422 40.8538C196.738 40.8538 198.825 40.4264 200.682 39.571C202.538 38.7153 204.114 37.569 205.409 36.1318C206.703 34.6949 207.691 33.0183 208.373 31.1013C209.054 29.1854 209.395 27.1666 209.395 25.0442ZM213.278 25.0184C213.278 27.7949 212.801 30.3488 211.848 32.6791C210.894 35.0105 209.574 37.0236 207.887 38.7202C206.201 40.4169 204.208 41.7455 201.908 42.7048C199.609 43.6639 197.113 44.1442 194.422 44.1442C191.73 44.1442 189.235 43.6639 186.935 42.7048C184.636 41.7455 182.642 40.4169 180.956 38.7202C179.27 37.0236 177.949 35.0105 176.996 32.6791C176.042 30.3488 175.565 27.7949 175.565 25.0184C175.565 22.2422 176.042 19.6891 176.996 17.3577C177.949 15.0271 179.27 13.0133 180.956 11.3166C182.642 9.61996 184.636 8.29212 186.935 7.33199C189.235 6.37295 191.73 5.89261 194.422 5.89261C197.113 5.89261 199.609 6.37295 201.908 7.33199C204.208 8.29212 206.201 9.61996 207.887 11.3166C209.574 13.0133 210.894 15.0271 211.848 17.3577C212.801 19.6891 213.278 22.2422 213.278 25.0184Z" fill="white"/>
<path d="M252.218 37.8205H252.321V6.8179H256V43.219H251.401L230.347 11.9078H230.244V43.219H226.565V6.8179H231.164L252.218 37.8205Z" fill="white"/>
<path d="M80 61.8935V54.1065H81.1182V61.057H85.4108V61.8935H80Z" fill="white"/>
<path d="M94.5741 58C94.5741 58.8213 94.3983 59.5311 94.0466 60.1293C93.6949 60.7275 93.2124 61.1889 92.5992 61.5133C91.986 61.8378 91.2856 62 90.498 62C89.7105 62 89.0101 61.8378 88.3969 61.5133C87.7836 61.1889 87.3012 60.7275 86.9495 60.1293C86.5978 59.5311 86.4219 58.8213 86.4219 58C86.4219 57.1787 86.5978 56.4689 86.9495 55.8707C87.3012 55.2725 87.7836 54.8112 88.3969 54.4867C89.0101 54.1622 89.7105 54 90.498 54C91.2856 54 91.986 54.1622 92.5992 54.4867C93.2124 54.8112 93.6949 55.2725 94.0466 55.8707C94.3983 56.4689 94.5741 57.1787 94.5741 58ZM93.492 58C93.492 57.3257 93.3582 56.7567 93.0907 56.2928C92.8262 55.8289 92.4669 55.4778 92.013 55.2395C91.5621 55.0013 91.0571 54.8821 90.498 54.8821C89.9389 54.8821 89.4324 55.0013 88.9785 55.2395C88.5276 55.4778 88.1684 55.8289 87.9009 56.2928C87.6363 56.7567 87.5041 57.3257 87.5041 58C87.5041 58.6743 87.6363 59.2434 87.9009 59.7072C88.1684 60.1711 88.5276 60.5222 88.9785 60.7605C89.4324 60.9987 89.9389 61.1179 90.498 61.1179C91.0571 61.1179 91.5621 60.9987 92.013 60.7605C92.4669 60.5222 92.8262 60.1711 93.0907 59.7072C93.3582 59.2434 93.492 58.6743 93.492 58Z" fill="white"/>
<path d="M103.777 54.1065V61.8935H102.695L97.6628 55.7795H97.5726V61.8935H96.4544V54.1065H97.5365L102.587 60.2357H102.677V54.1065H103.777Z" fill="white"/>
<path d="M112.327 56.5399C112.228 56.2839 112.097 56.0545 111.935 55.8517C111.776 55.6464 111.585 55.4715 111.362 55.327C111.143 55.1825 110.893 55.0722 110.614 54.9962C110.334 54.9202 110.028 54.8821 109.694 54.8821C109.147 54.8821 108.649 55.0013 108.201 55.2395C107.754 55.4778 107.397 55.8289 107.133 56.2928C106.868 56.7567 106.736 57.3257 106.736 58C106.736 58.6743 106.87 59.2434 107.137 59.7072C107.405 60.1711 107.767 60.5222 108.224 60.7605C108.681 60.9987 109.195 61.1179 109.766 61.1179C110.295 61.1179 110.761 61.0228 111.164 60.8327C111.57 60.6401 111.885 60.3688 112.111 60.019C112.339 59.6667 112.453 59.2522 112.453 58.7757L112.796 58.8365H110.019V58H113.536V58.8365C113.536 59.4778 113.373 60.0355 113.049 60.5095C112.727 60.9835 112.282 61.3511 111.714 61.6122C111.149 61.8707 110.499 62 109.766 62C108.948 62 108.23 61.8378 107.611 61.5133C106.995 61.1889 106.514 60.7275 106.168 60.1293C105.825 59.5311 105.654 58.8213 105.654 58C105.654 57.384 105.752 56.8302 105.947 56.3384C106.145 55.8441 106.425 55.4233 106.786 55.076C107.146 54.7288 107.573 54.4626 108.066 54.2776C108.559 54.0925 109.102 54 109.694 54C110.181 54 110.635 54.0621 111.056 54.1863C111.479 54.308 111.857 54.4816 112.187 54.7072C112.521 54.9303 112.799 55.1977 113.022 55.5095C113.244 55.8188 113.397 56.1622 113.481 56.5399H112.327Z" fill="white"/>
<path d="M115.451 61.8935V54.1065H121.024V54.943H116.569V57.5741H120.735V58.4106H116.569V61.057H121.096V61.8935H115.451Z" fill="white"/>
<path d="M123.418 54.1065L126.16 60.6616H126.268L129.009 54.1065H130.182L126.791 61.8935H125.637L122.246 54.1065H123.418Z" fill="white"/>
<path d="M132.738 54.1065V61.8935H131.62V54.1065H132.738Z" fill="white"/>
<path d="M134.475 54.943V54.1065H141.401V54.943H138.497V61.8935H137.379V54.943H134.475Z" fill="white"/>
<path d="M142.333 54.1065H143.614L146.175 57.7414H146.283L148.844 54.1065H150.125L146.788 58.6844V61.8935H145.67V58.6844L142.333 54.1065Z" fill="white"/>
<path d="M157.613 62C157.006 62 156.483 61.9062 156.044 61.7186C155.605 61.5311 155.267 61.2738 155.029 60.9468C154.792 60.6198 154.673 60.2459 154.673 59.8251C154.673 59.5006 154.754 59.2129 154.917 58.962C155.082 58.7085 155.309 58.474 155.598 58.2586C155.889 58.0406 156.224 57.8226 156.603 57.6046L157.938 56.7681C158.199 56.6236 158.408 56.469 158.564 56.3042C158.724 56.1394 158.803 55.924 158.803 55.6578C158.803 55.4601 158.7 55.2687 158.492 55.0837C158.288 54.8986 158.019 54.8061 157.685 54.8061C157.451 54.8061 157.243 54.8568 157.063 54.9582C156.886 55.057 156.746 55.1838 156.644 55.3384C156.544 55.4905 156.495 55.6477 156.495 55.8099C156.495 55.9924 156.553 56.1774 156.671 56.365C156.791 56.5501 156.943 56.7402 157.126 56.9354C157.312 57.128 157.505 57.3257 157.703 57.5285L161.942 61.8935H160.661L157.162 58.3346C156.838 58.0051 156.543 57.706 156.278 57.4373C156.014 57.1686 155.803 56.9037 155.647 56.6426C155.491 56.3815 155.413 56.0989 155.413 55.7947C155.413 55.4449 155.504 55.1381 155.688 54.8745C155.874 54.6084 156.134 54.4018 156.468 54.2548C156.804 54.1052 157.198 54.0304 157.649 54.0304C158.112 54.0304 158.51 54.1065 158.844 54.2586C159.178 54.4081 159.435 54.6071 159.615 54.8555C159.795 55.1014 159.886 55.3688 159.886 55.6578C159.886 56.0304 159.776 56.3536 159.556 56.6274C159.337 56.9011 159.038 57.1559 158.659 57.3916L156.82 58.5475C156.405 58.8061 156.124 59.057 155.976 59.3004C155.829 59.5437 155.755 59.7186 155.755 59.8251C155.755 60.0684 155.831 60.2953 155.981 60.5057C156.131 60.7161 156.343 60.8859 156.617 61.0152C156.89 61.1445 157.21 61.2091 157.577 61.2091C157.926 61.2091 158.265 61.147 158.596 61.0228C158.927 60.8961 159.226 60.7136 159.493 60.4753C159.764 60.237 159.977 59.9506 160.134 59.616C160.293 59.2814 160.373 58.9049 160.373 58.4867H161.401C161.401 59.0038 161.33 59.4259 161.189 59.7529C161.047 60.0799 160.888 60.3359 160.711 60.5209C160.533 60.706 160.391 60.8441 160.282 60.9354C160.246 60.9734 160.213 61.0114 160.183 61.0494C160.153 61.0875 160.12 61.1255 160.084 61.1635C159.786 61.4449 159.411 61.6553 158.957 61.7947C158.503 61.9316 158.055 62 157.613 62Z" fill="white"/>
<path d="M166.835 61.8935V54.1065H169.955C170.677 54.1065 171.269 54.2104 171.732 54.4182C172.195 54.6236 172.537 54.9062 172.76 55.2662C172.982 55.6261 173.094 56.0355 173.094 56.4943C173.094 56.9531 172.982 57.36 172.76 57.7148C172.537 58.0697 172.196 58.3485 171.736 58.5513C171.276 58.7516 170.689 58.8517 169.973 58.8517H167.448V58H169.937C170.43 58 170.827 57.9392 171.128 57.8175C171.431 57.6958 171.651 57.5235 171.786 57.3004C171.924 57.0748 171.993 56.8061 171.993 56.4943C171.993 56.1825 171.924 55.91 171.786 55.6768C171.648 55.4436 171.427 55.2636 171.123 55.1369C170.82 55.0076 170.418 54.943 169.919 54.943H167.953V61.8935H166.835ZM171.182 58.3954L173.454 61.8935H172.156L169.919 58.3954H171.182Z" fill="white"/>
<path d="M174.957 61.8935V54.1065H180.53V54.943H176.075V57.5741H180.241V58.4106H176.075V61.057H180.602V61.8935H174.957Z" fill="white"/>
<path d="M189.976 56.5399H188.858C188.792 56.2687 188.676 56.0304 188.511 55.8251C188.349 55.6198 188.15 55.4474 187.916 55.308C187.684 55.166 187.427 55.0596 187.145 54.9886C186.862 54.9176 186.567 54.8821 186.261 54.8821C185.702 54.8821 185.195 55.0013 184.741 55.2395C184.29 55.4778 183.931 55.8289 183.664 56.2928C183.399 56.7567 183.267 57.3257 183.267 58C183.267 58.6743 183.399 59.2434 183.664 59.7072C183.931 60.1711 184.29 60.5222 184.741 60.7605C185.195 60.9987 185.702 61.1179 186.261 61.1179C186.567 61.1179 186.862 61.0824 187.145 61.0114C187.427 60.9404 187.684 60.8352 187.916 60.6958C188.15 60.5539 188.349 60.3802 188.511 60.1749C188.676 59.9671 188.792 59.7288 188.858 59.4601H189.976C189.892 59.858 189.739 60.2142 189.516 60.5285C189.294 60.8428 189.017 61.1103 188.687 61.3308C188.356 61.5488 187.985 61.7148 187.573 61.8289C187.164 61.943 186.727 62 186.261 62C185.473 62 184.773 61.8378 184.16 61.5133C183.546 61.1889 183.064 60.7275 182.712 60.1293C182.361 59.5311 182.185 58.8213 182.185 58C182.185 57.1787 182.361 56.4689 182.712 55.8707C183.064 55.2725 183.546 54.8112 184.16 54.4867C184.773 54.1622 185.473 54 186.261 54C186.727 54 187.164 54.057 187.573 54.1711C187.985 54.2852 188.356 54.4525 188.687 54.673C189.017 54.891 189.294 55.1572 189.516 55.4715C189.739 55.7833 189.892 56.1394 189.976 56.5399Z" fill="white"/>
<path d="M199.575 58C199.575 58.8213 199.399 59.5311 199.047 60.1293C198.696 60.7275 198.213 61.1889 197.6 61.5133C196.987 61.8378 196.286 62 195.499 62C194.711 62 194.011 61.8378 193.397 61.5133C192.784 61.1889 192.302 60.7275 191.95 60.1293C191.598 59.5311 191.423 58.8213 191.423 58C191.423 57.1787 191.598 56.4689 191.95 55.8707C192.302 55.2725 192.784 54.8112 193.397 54.4867C194.011 54.1622 194.711 54 195.499 54C196.286 54 196.987 54.1622 197.6 54.4867C198.213 54.8112 198.696 55.2725 199.047 55.8707C199.399 56.4689 199.575 57.1787 199.575 58ZM198.493 58C198.493 57.3257 198.359 56.7567 198.091 56.2928C197.827 55.8289 197.468 55.4778 197.014 55.2395C196.563 55.0013 196.058 54.8821 195.499 54.8821C194.94 54.8821 194.433 55.0013 193.979 55.2395C193.528 55.4778 193.169 55.8289 192.901 56.2928C192.637 56.7567 192.505 57.3257 192.505 58C192.505 58.6743 192.637 59.2434 192.901 59.7072C193.169 60.1711 193.528 60.5222 193.979 60.7605C194.433 60.9987 194.94 61.1179 195.499 61.1179C196.058 61.1179 196.563 60.9987 197.014 60.7605C197.468 60.5222 197.827 60.1711 198.091 59.7072C198.359 59.2434 198.493 58.6743 198.493 58Z" fill="white"/>
<path d="M201.4 54.1065L204.141 60.6616H204.249L206.991 54.1065H208.163L204.773 61.8935H203.618L200.227 54.1065H201.4Z" fill="white"/>
<path d="M209.602 61.8935V54.1065H215.175V54.943H210.72V57.5741H214.886V58.4106H210.72V61.057H215.247V61.8935H209.602Z" fill="white"/>
<path d="M217.19 61.8935V54.1065H220.31C221.032 54.1065 221.624 54.2104 222.087 54.4182C222.55 54.6236 222.893 54.9062 223.115 55.2662C223.337 55.6261 223.449 56.0355 223.449 56.4943C223.449 56.9531 223.337 57.36 223.115 57.7148C222.893 58.0697 222.551 58.3485 222.092 58.5513C221.632 58.7516 221.044 58.8517 220.328 58.8517H217.803V58H220.292C220.785 58 221.182 57.9392 221.483 57.8175C221.786 57.6958 222.006 57.5235 222.141 57.3004C222.279 57.0748 222.348 56.8061 222.348 56.4943C222.348 56.1825 222.279 55.91 222.141 55.6768C222.003 55.4436 221.782 55.2636 221.478 55.1369C221.175 55.0076 220.773 54.943 220.274 54.943H218.308V61.8935H217.19ZM221.537 58.3954L223.809 61.8935H222.511L220.274 58.3954H221.537Z" fill="white"/>
<path d="M224.208 54.1065H225.489L228.05 57.7414H228.158L230.719 54.1065H232L228.663 58.6844V61.8935H227.545V58.6844L224.208 54.1065Z" fill="white"/>
</svg>
